<svg id="visual" viewBox="0 0 900 600" width="900" height="600" xmlns="http://www.w3.org/2000/svg" xmlns:xlink="http://www.w3.org/1999/xlink" version="1.1"><rect x="0" y="0" width="900" height="600" fill="#FFFFFF"></rect><g transform="translate(557.3474818312441 225.01524462723216)"><path d="M374.7 -463.9C464.1 -450.7 500.2 -312.5 458.6 -204.7C417 -96.9 297.7 -19.5 273.2 99C248.8 217.4 319.2 376.9 289.5 476.6C259.8 576.3 129.9 616.1 0.9 614.9C-128.1 613.7 -256.3 571.4 -375.2 500.7C-494 430 -603.7 330.9 -656.3 204.8C-708.9 78.7 -704.4 -74.4 -617.7 -157.2C-530.9 -240.1 -361.9 -252.7 -245.2 -257C-128.5 -261.2 -64.3 -257.1 39.2 -311.1C142.6 -365 285.3 -477 374.7 -463.9" fill="#42A5F5"></path></g></svg>