<svg id="visual" viewBox="0 0 900 600" width="900" height="600" xmlns="http://www.w3.org/2000/svg" xmlns:xlink="http://www.w3.org/1999/xlink" version="1.1"><rect x="0" y="0" width="900" height="600" fill="#F7F9F9"></rect><path d="M0 433L25 440.3C50 447.7 100 462.3 150 465.3C200 468.3 250 459.7 300 444.2C350 428.7 400 406.3 450 384.2C500 362 550 340 600 359.8C650 379.7 700 441.3 750 446.5C800 451.7 850 400.3 875 374.7L900 349L900 601L875 601C850 601 800 601 750 601C700 601 650 601 600 601C550 601 500 601 450 601C400 601 350 601 300 601C250 601 200 601 150 601C100 601 50 601 25 601L0 601Z" fill="#033117" stroke-linecap="round" stroke-linejoin="miter"></path></svg>